<svg width="100%" height="25" viewBox="0 0 150 25" fill="none" xmlns="http://www.w3.org/2000/svg">
  <path d="M125.701 0.175781C119.676 0.175781 113.804 0.773744 108.065 1.93517L108.856 6.85684C113.604 5.8909 118.351 5.33894 123.308 5.20095V23.7837H128.017V5.21245C132.955 5.35044 137.76 5.9024 142.488 6.85684L143.27 1.93517C137.56 0.773744 131.697 0.175781 125.701 0.175781Z" fill="red"/>
  <path d="M46.9112 1.05005H42.1924V23.8416H46.9112V1.05005Z" fill="red"/>
  <path d="M0 1.99327L0.79123 6.91495C5.53861 5.94901 10.286 5.39705 15.2431 5.25906V23.8418H19.9523V5.25906C24.8904 5.39705 29.6949 5.94901 34.4233 6.90345L35.2145 1.98177C29.5043 0.831849 23.6416 0.233887 17.6454 0.233887C11.6111 0.233887 5.7388 0.83185 0 1.99327Z" fill="red"/>
  <path d="M101.077 1.05005H96.3584V23.8416H101.077V1.05005Z" fill="red"/>
  <path d="M71.6398 17.2871C66.3204 11.7559 61.5635 5.37383 58.2461 0.118678L54.5854 3.20048C58.4844 9.74355 65.758 18.6095 71.6493 24.2326L71.697 24.1866C77.5692 18.5635 84.8142 9.73205 88.7132 3.18898L85.0526 0.107178C81.7256 5.37383 76.9687 11.7559 71.6398 17.2871Z" fill="red"/>
</svg>

